<mxfile host="app.diagrams.net" agent="Mozilla/5.0 (Windows NT 10.0; Win64; x64) AppleWebKit/537.36 (KHTML, like Gecko) Chrome/133.0.0.0 Safari/537.36 Edg/133.0.0.0" version="26.0.16">
  <diagram name="Page-1" id="ZFiH8EYOTP5ZMLRuVaRG">
    <mxGraphModel dx="1816" dy="1491" grid="0" gridSize="10" guides="1" tooltips="1" connect="1" arrows="1" fold="1" page="0" pageScale="1" pageWidth="827" pageHeight="1169" math="0" shadow="0">
      <root>
        <mxCell id="0" />
        <mxCell id="1" parent="0" />
        <mxCell id="RCieuiTCuYmHpB4AClvy-1" value="MyDeque&amp;lt;T&amp;gt;" style="swimlane;fontStyle=1;align=center;verticalAlign=top;childLayout=stackLayout;horizontal=1;startSize=26;horizontalStack=0;resizeParent=1;resizeParentMax=0;resizeLast=0;collapsible=1;marginBottom=0;whiteSpace=wrap;html=1;fillColor=#008a00;fontColor=#ffffff;strokeColor=#005700;" vertex="1" parent="1">
          <mxGeometry x="-45" y="-53" width="238" height="414" as="geometry" />
        </mxCell>
        <mxCell id="RCieuiTCuYmHpB4AClvy-2" value="Node&amp;lt;T&amp;gt; _head" style="text;strokeColor=none;fillColor=none;align=left;verticalAlign=top;spacingLeft=4;spacingRight=4;overflow=hidden;rotatable=0;points=[[0,0.5],[1,0.5]];portConstraint=eastwest;whiteSpace=wrap;html=1;" vertex="1" parent="RCieuiTCuYmHpB4AClvy-1">
          <mxGeometry y="26" width="238" height="26" as="geometry" />
        </mxCell>
        <mxCell id="RCieuiTCuYmHpB4AClvy-3" value="Node&amp;lt;T&amp;gt; _tail" style="text;strokeColor=none;fillColor=none;align=left;verticalAlign=top;spacingLeft=4;spacingRight=4;overflow=hidden;rotatable=0;points=[[0,0.5],[1,0.5]];portConstraint=eastwest;whiteSpace=wrap;html=1;" vertex="1" parent="RCieuiTCuYmHpB4AClvy-1">
          <mxGeometry y="52" width="238" height="26" as="geometry" />
        </mxCell>
        <mxCell id="RCieuiTCuYmHpB4AClvy-4" value="" style="line;strokeWidth=1;fillColor=none;align=left;verticalAlign=middle;spacingTop=-1;spacingLeft=3;spacingRight=3;rotatable=0;labelPosition=right;points=[];portConstraint=eastwest;strokeColor=inherit;" vertex="1" parent="RCieuiTCuYmHpB4AClvy-1">
          <mxGeometry y="78" width="238" height="8" as="geometry" />
        </mxCell>
        <mxCell id="RCieuiTCuYmHpB4AClvy-5" value="int Count" style="text;strokeColor=none;fillColor=none;align=left;verticalAlign=top;spacingLeft=4;spacingRight=4;overflow=hidden;rotatable=0;points=[[0,0.5],[1,0.5]];portConstraint=eastwest;whiteSpace=wrap;html=1;" vertex="1" parent="RCieuiTCuYmHpB4AClvy-1">
          <mxGeometry y="86" width="238" height="26" as="geometry" />
        </mxCell>
        <mxCell id="RCieuiTCuYmHpB4AClvy-6" value="bool IsEmpty" style="text;strokeColor=none;fillColor=none;align=left;verticalAlign=top;spacingLeft=4;spacingRight=4;overflow=hidden;rotatable=0;points=[[0,0.5],[1,0.5]];portConstraint=eastwest;whiteSpace=wrap;html=1;" vertex="1" parent="RCieuiTCuYmHpB4AClvy-1">
          <mxGeometry y="112" width="238" height="26" as="geometry" />
        </mxCell>
        <mxCell id="RCieuiTCuYmHpB4AClvy-7" value="" style="line;strokeWidth=1;fillColor=none;align=left;verticalAlign=middle;spacingTop=-1;spacingLeft=3;spacingRight=3;rotatable=0;labelPosition=right;points=[];portConstraint=eastwest;strokeColor=inherit;" vertex="1" parent="RCieuiTCuYmHpB4AClvy-1">
          <mxGeometry y="138" width="238" height="8" as="geometry" />
        </mxCell>
        <mxCell id="RCieuiTCuYmHpB4AClvy-8" value="MyDeque()&lt;div&gt;&lt;br&gt;&lt;/div&gt;" style="text;strokeColor=none;fillColor=none;align=left;verticalAlign=top;spacingLeft=4;spacingRight=4;overflow=hidden;rotatable=0;points=[[0,0.5],[1,0.5]];portConstraint=eastwest;whiteSpace=wrap;html=1;" vertex="1" parent="RCieuiTCuYmHpB4AClvy-1">
          <mxGeometry y="146" width="238" height="26" as="geometry" />
        </mxCell>
        <mxCell id="RCieuiTCuYmHpB4AClvy-9" value="MyDeque(T data)" style="text;strokeColor=none;fillColor=none;align=left;verticalAlign=top;spacingLeft=4;spacingRight=4;overflow=hidden;rotatable=0;points=[[0,0.5],[1,0.5]];portConstraint=eastwest;whiteSpace=wrap;html=1;" vertex="1" parent="RCieuiTCuYmHpB4AClvy-1">
          <mxGeometry y="172" width="238" height="26" as="geometry" />
        </mxCell>
        <mxCell id="RCieuiTCuYmHpB4AClvy-10" value="MyDeque(IEnumerable&amp;lt;T&amp;gt; collection)" style="text;strokeColor=none;fillColor=none;align=left;verticalAlign=top;spacingLeft=4;spacingRight=4;overflow=hidden;rotatable=0;points=[[0,0.5],[1,0.5]];portConstraint=eastwest;whiteSpace=wrap;html=1;" vertex="1" parent="RCieuiTCuYmHpB4AClvy-1">
          <mxGeometry y="198" width="238" height="26" as="geometry" />
        </mxCell>
        <mxCell id="RCieuiTCuYmHpB4AClvy-11" value="" style="line;strokeWidth=1;fillColor=none;align=left;verticalAlign=middle;spacingTop=-1;spacingLeft=3;spacingRight=3;rotatable=0;labelPosition=right;points=[];portConstraint=eastwest;strokeColor=inherit;" vertex="1" parent="RCieuiTCuYmHpB4AClvy-1">
          <mxGeometry y="224" width="238" height="8" as="geometry" />
        </mxCell>
        <mxCell id="RCieuiTCuYmHpB4AClvy-12" value="void EnqueueHead(T data&lt;span style=&quot;background-color: transparent; color: light-dark(rgb(0, 0, 0), rgb(255, 255, 255));&quot;&gt;)&lt;/span&gt;" style="text;strokeColor=none;fillColor=none;align=left;verticalAlign=top;spacingLeft=4;spacingRight=4;overflow=hidden;rotatable=0;points=[[0,0.5],[1,0.5]];portConstraint=eastwest;whiteSpace=wrap;html=1;" vertex="1" parent="RCieuiTCuYmHpB4AClvy-1">
          <mxGeometry y="232" width="238" height="26" as="geometry" />
        </mxCell>
        <mxCell id="RCieuiTCuYmHpB4AClvy-13" value="T data DequeueHead(&lt;span style=&quot;background-color: transparent; color: light-dark(rgb(0, 0, 0), rgb(255, 255, 255));&quot;&gt;)&lt;/span&gt;" style="text;strokeColor=none;fillColor=none;align=left;verticalAlign=top;spacingLeft=4;spacingRight=4;overflow=hidden;rotatable=0;points=[[0,0.5],[1,0.5]];portConstraint=eastwest;whiteSpace=wrap;html=1;" vertex="1" parent="RCieuiTCuYmHpB4AClvy-1">
          <mxGeometry y="258" width="238" height="26" as="geometry" />
        </mxCell>
        <mxCell id="RCieuiTCuYmHpB4AClvy-14" value="T data PeekHead(&lt;span style=&quot;background-color: transparent; color: light-dark(rgb(0, 0, 0), rgb(255, 255, 255));&quot;&gt;)&lt;/span&gt;" style="text;strokeColor=none;fillColor=none;align=left;verticalAlign=top;spacingLeft=4;spacingRight=4;overflow=hidden;rotatable=0;points=[[0,0.5],[1,0.5]];portConstraint=eastwest;whiteSpace=wrap;html=1;" vertex="1" parent="RCieuiTCuYmHpB4AClvy-1">
          <mxGeometry y="284" width="238" height="26" as="geometry" />
        </mxCell>
        <mxCell id="RCieuiTCuYmHpB4AClvy-25" value="void EnqueueTail(T data&lt;span style=&quot;background-color: transparent; color: light-dark(rgb(0, 0, 0), rgb(255, 255, 255));&quot;&gt;)&lt;/span&gt;" style="text;strokeColor=none;fillColor=none;align=left;verticalAlign=top;spacingLeft=4;spacingRight=4;overflow=hidden;rotatable=0;points=[[0,0.5],[1,0.5]];portConstraint=eastwest;whiteSpace=wrap;html=1;" vertex="1" parent="RCieuiTCuYmHpB4AClvy-1">
          <mxGeometry y="310" width="238" height="26" as="geometry" />
        </mxCell>
        <mxCell id="RCieuiTCuYmHpB4AClvy-27" value="T data PeekTail(&lt;span style=&quot;background-color: transparent; color: light-dark(rgb(0, 0, 0), rgb(255, 255, 255));&quot;&gt;)&lt;/span&gt;" style="text;strokeColor=none;fillColor=none;align=left;verticalAlign=top;spacingLeft=4;spacingRight=4;overflow=hidden;rotatable=0;points=[[0,0.5],[1,0.5]];portConstraint=eastwest;whiteSpace=wrap;html=1;" vertex="1" parent="RCieuiTCuYmHpB4AClvy-1">
          <mxGeometry y="336" width="238" height="26" as="geometry" />
        </mxCell>
        <mxCell id="RCieuiTCuYmHpB4AClvy-26" value="T data DequeueTail(&lt;span style=&quot;background-color: transparent; color: light-dark(rgb(0, 0, 0), rgb(255, 255, 255));&quot;&gt;)&lt;/span&gt;" style="text;strokeColor=none;fillColor=none;align=left;verticalAlign=top;spacingLeft=4;spacingRight=4;overflow=hidden;rotatable=0;points=[[0,0.5],[1,0.5]];portConstraint=eastwest;whiteSpace=wrap;html=1;" vertex="1" parent="RCieuiTCuYmHpB4AClvy-1">
          <mxGeometry y="362" width="238" height="26" as="geometry" />
        </mxCell>
        <mxCell id="RCieuiTCuYmHpB4AClvy-15" value="&amp;nbsp;void Clear(&lt;span style=&quot;background-color: transparent; color: light-dark(rgb(0, 0, 0), rgb(255, 255, 255));&quot;&gt;)&lt;/span&gt;" style="text;strokeColor=none;fillColor=none;align=left;verticalAlign=top;spacingLeft=4;spacingRight=4;overflow=hidden;rotatable=0;points=[[0,0.5],[1,0.5]];portConstraint=eastwest;whiteSpace=wrap;html=1;" vertex="1" parent="RCieuiTCuYmHpB4AClvy-1">
          <mxGeometry y="388" width="238" height="26" as="geometry" />
        </mxCell>
        <mxCell id="RCieuiTCuYmHpB4AClvy-16" value="Node&amp;lt;T&amp;gt;" style="swimlane;fontStyle=1;align=center;verticalAlign=top;childLayout=stackLayout;horizontal=1;startSize=26;horizontalStack=0;resizeParent=1;resizeParentMax=0;resizeLast=0;collapsible=1;marginBottom=0;whiteSpace=wrap;html=1;fillColor=#008a00;fontColor=#ffffff;strokeColor=#005700;" vertex="1" parent="1">
          <mxGeometry x="269" y="38" width="238" height="138" as="geometry" />
        </mxCell>
        <mxCell id="RCieuiTCuYmHpB4AClvy-17" value="T data" style="text;strokeColor=none;fillColor=none;align=left;verticalAlign=top;spacingLeft=4;spacingRight=4;overflow=hidden;rotatable=0;points=[[0,0.5],[1,0.5]];portConstraint=eastwest;whiteSpace=wrap;html=1;" vertex="1" parent="RCieuiTCuYmHpB4AClvy-16">
          <mxGeometry y="26" width="238" height="26" as="geometry" />
        </mxCell>
        <mxCell id="RCieuiTCuYmHpB4AClvy-18" value="Node&amp;lt;T&amp;gt; Next" style="text;strokeColor=none;fillColor=none;align=left;verticalAlign=top;spacingLeft=4;spacingRight=4;overflow=hidden;rotatable=0;points=[[0,0.5],[1,0.5]];portConstraint=eastwest;whiteSpace=wrap;html=1;" vertex="1" parent="RCieuiTCuYmHpB4AClvy-16">
          <mxGeometry y="52" width="238" height="26" as="geometry" />
        </mxCell>
        <mxCell id="RCieuiTCuYmHpB4AClvy-24" value="Node&amp;lt;T&amp;gt; Previous" style="text;strokeColor=none;fillColor=none;align=left;verticalAlign=top;spacingLeft=4;spacingRight=4;overflow=hidden;rotatable=0;points=[[0,0.5],[1,0.5]];portConstraint=eastwest;whiteSpace=wrap;html=1;" vertex="1" parent="RCieuiTCuYmHpB4AClvy-16">
          <mxGeometry y="78" width="238" height="26" as="geometry" />
        </mxCell>
        <mxCell id="RCieuiTCuYmHpB4AClvy-19" value="" style="line;strokeWidth=1;fillColor=none;align=left;verticalAlign=middle;spacingTop=-1;spacingLeft=3;spacingRight=3;rotatable=0;labelPosition=right;points=[];portConstraint=eastwest;strokeColor=inherit;" vertex="1" parent="RCieuiTCuYmHpB4AClvy-16">
          <mxGeometry y="104" width="238" height="8" as="geometry" />
        </mxCell>
        <mxCell id="RCieuiTCuYmHpB4AClvy-20" value="Node(T data)" style="text;strokeColor=none;fillColor=none;align=left;verticalAlign=top;spacingLeft=4;spacingRight=4;overflow=hidden;rotatable=0;points=[[0,0.5],[1,0.5]];portConstraint=eastwest;whiteSpace=wrap;html=1;" vertex="1" parent="RCieuiTCuYmHpB4AClvy-16">
          <mxGeometry y="112" width="238" height="26" as="geometry" />
        </mxCell>
        <mxCell id="RCieuiTCuYmHpB4AClvy-21" style="edgeStyle=orthogonalEdgeStyle;rounded=0;orthogonalLoop=1;jettySize=auto;html=1;exitX=1;exitY=0.5;exitDx=0;exitDy=0;entryX=0.5;entryY=0;entryDx=0;entryDy=0;" edge="1" parent="1" source="RCieuiTCuYmHpB4AClvy-2" target="RCieuiTCuYmHpB4AClvy-16">
          <mxGeometry relative="1" as="geometry" />
        </mxCell>
        <mxCell id="RCieuiTCuYmHpB4AClvy-22" style="edgeStyle=orthogonalEdgeStyle;rounded=0;orthogonalLoop=1;jettySize=auto;html=1;exitX=1;exitY=0.5;exitDx=0;exitDy=0;" edge="1" parent="1" source="RCieuiTCuYmHpB4AClvy-3" target="RCieuiTCuYmHpB4AClvy-16">
          <mxGeometry relative="1" as="geometry" />
        </mxCell>
      </root>
    </mxGraphModel>
  </diagram>
</mxfile>
